<svg xmlns="http://www.w3.org/2000/svg" width="13.802" height="18" viewBox="0 0 13.802 18"><g transform="translate(-3 -3.616)"><path d="M41.94,9H41V25.31h.941a.942.942,0,0,0,.941-.941V9.94A.942.942,0,0,0,41.94,9Z" transform="translate(-26.079 -3.694)" fill="#fff"/><path d="M5,10.567H5.94a.941.941,0,0,1,0,1.882H5V13.7H5.94a.941.941,0,0,1,0,1.882H5v1.255H5.94a.941.941,0,0,1,0,1.882H5v1.255H5.94a.941.941,0,0,1,0,1.882H5V25.31h8.783V9H5Zm2.823,0a.313.313,0,0,1,.314-.314H11.9a.313.313,0,0,1,.314.314v1.882a.313.313,0,0,1-.314.314H8.136a.313.313,0,0,1-.314-.314Z" transform="translate(-1.372 -3.694)" fill="#fff"/><path d="M35,9h1.255V25.31H35Z" transform="translate(-21.962 -3.694)" fill="#fff"/><path d="M16,15h3.137v1.254H16Z" transform="translate(-8.922 -7.812)" fill="#fff"/><path d="M4.882,46.313A.314.314,0,0,0,4.568,46H3.314a.314.314,0,1,0,0,.627H4.568A.313.313,0,0,0,4.882,46.313Z" transform="translate(0 -29.088)" fill="#fff"/><path d="M3.314,16.626H4.568a.314.314,0,0,0,0-.627H3.314a.314.314,0,1,0,0,.627Z" transform="translate(0 -8.499)" fill="#fff"/><path d="M10.882,3.616l-.8.4a.312.312,0,0,1-.28,0l-.8-.4V4.677h1.882V3.616Z" transform="translate(-4.118 0)" fill="#fff"/><path d="M3.314,36.626H4.568a.314.314,0,0,0,0-.627H3.314a.314.314,0,1,0,0,.627Z" transform="translate(0 -22.225)" fill="#fff"/><path d="M3.314,26.626H4.568a.314.314,0,0,0,0-.627H3.314a.314.314,0,1,0,0,.627Z" transform="translate(0 -15.362)" fill="#fff"/></g></svg>