<svg xmlns="http://www.w3.org/2000/svg" width="18" height="18" viewBox="0 0 18 18"><g transform="translate(0 5.25)"><path d="M1.875,152.333v-2.25a.375.375,0,1,0,0-.75A1.877,1.877,0,0,0,0,151.208v.75a1.126,1.126,0,0,0,1.125,1.125h.75a.375.375,0,1,0,0-.75Z" transform="translate(0 -149.333)" fill="#fff"/></g><g transform="translate(15.75 5.25)"><path d="M448.375,149.333a.375.375,0,0,0,0,.75v2.25a.375.375,0,1,0,0,.75h.75a1.126,1.126,0,0,0,1.125-1.125v-.75A1.877,1.877,0,0,0,448.375,149.333Z" transform="translate(-448 -149.333)" fill="#fff"/></g><g transform="translate(3 15.75)"><path d="M88.707,448a.375.375,0,0,0-.375.375h-2.25a.375.375,0,0,0-.75,0v.75a1.126,1.126,0,0,0,1.125,1.125h1.5a1.126,1.126,0,0,0,1.125-1.125v-.75A.375.375,0,0,0,88.707,448Z" transform="translate(-85.332 -448)" fill="#fff"/></g><g transform="translate(11.25 15.75)"><path d="M323.375,448a.375.375,0,0,0-.375.375h-2.25a.375.375,0,1,0-.75,0v.75a1.126,1.126,0,0,0,1.125,1.125h1.5a1.126,1.126,0,0,0,1.125-1.125v-.75A.375.375,0,0,0,323.375,448Z" transform="translate(-320 -448)" fill="#fff"/></g><g transform="translate(1.5)"><path d="M55.792,0H44.542a1.877,1.877,0,0,0-1.875,1.875v12.75A1.877,1.877,0,0,0,44.542,16.5h11.25a1.877,1.877,0,0,0,1.875-1.875V1.875A1.877,1.877,0,0,0,55.792,0Zm-9.75,1.5h8.25a1.125,1.125,0,0,1,0,2.25h-8.25a1.125,1.125,0,0,1,0-2.25Zm0,12.75a1.125,1.125,0,1,1,1.125-1.125A1.126,1.126,0,0,1,46.042,14.25Zm8.25,0a1.125,1.125,0,1,1,1.125-1.125A1.126,1.126,0,0,1,54.292,14.25Zm1.875-4.875A1.126,1.126,0,0,1,55.042,10.5h-9.75a1.126,1.126,0,0,1-1.125-1.125V5.625A1.126,1.126,0,0,1,45.292,4.5h9.75a1.126,1.126,0,0,1,1.125,1.125v3.75Z" transform="translate(-42.667)" fill="#fff"/></g></svg>