<svg xmlns="http://www.w3.org/2000/svg" width="20" height="20.345" viewBox="0 0 20 20.345">
    <defs>
        <style>
            .prefix__cls-1{fill:#fff}
        </style>
    </defs>
    <g id="prefix__luggage" transform="translate(-3 -2)">
        <path id="prefix__Path_152" d="M14.379 35H4.034A1.016 1.016 0 0 0 3 36.034v6.9a1.016 1.016 0 0 0 1.034 1.034h10.345a1.016 1.016 0 0 0 1.034-1.034v-6.9A1.016 1.016 0 0 0 14.379 35zM6.1 43.276h-.69v-.69h.69zm8.621-.345a.326.326 0 0 1-.345.345H6.793v-.69h7.241v-5.862h.69z" class="prefix__cls-1" data-name="Path 152" transform="translate(0 -21.621)"/>
        <path id="prefix__Path_153" d="M42.931 21h-6.9A1.016 1.016 0 0 0 35 22.034v3.1h.345a1.707 1.707 0 0 1 1.724 1.724v6.552h5.862a1.016 1.016 0 0 0 1.034-1.034V22.034A1.016 1.016 0 0 0 42.931 21zm.345 10h-.69v-.69h.69zm0-1.379h-.69v-7.242h-5.862v-.69h6.207a.326.326 0 0 1 .345.345z" class="prefix__cls-1" data-name="Path 153" transform="translate(-20.966 -12.448)"/>
        <path id="prefix__Path_154" d="M40.345 3.724v4.138h.69V3.379a.326.326 0 0 1 .345-.345h2.759a.326.326 0 0 1 .345.345v4.483h.69V3.724a.326.326 0 0 0 .345-.345v-.413a.681.681 0 0 0-.207-.483l-.276-.276A.681.681 0 0 0 44.552 2h-3.586a.681.681 0 0 0-.483.207l-.276.276a.681.681 0 0 0-.207.483v.414a.326.326 0 0 0 .345.345z" class="prefix__cls-1" data-name="Path 154" transform="translate(-24.241)"/>
        <path id="prefix__Path_155" d="M13.034 26.724a.692.692 0 0 1 .69-.69h2.759a.692.692 0 0 1 .69.69v1.034h1.034v-1.034A1.707 1.707 0 0 0 16.483 25h-2.759A1.707 1.707 0 0 0 12 26.724v1.034h1.034z" class="prefix__cls-1" data-name="Path 155" transform="translate(-5.897 -15.069)"/>
    </g>
</svg>
