<svg xmlns="http://www.w3.org/2000/svg" xmlns:xlink="http://www.w3.org/1999/xlink" width="25" height="26.5" viewBox="0 0 25 26.5">
  <defs>
    <filter id="Ellipse_47" x="0" y="0" width="25" height="26.5" filterUnits="userSpaceOnUse">
      <feOffset dy="3" input="SourceAlpha"/>
      <feGaussianBlur stdDeviation="0.5" result="blur"/>
      <feFlood flood-color="#20394a" flood-opacity="0.051"/>
      <feComposite operator="in" in2="blur"/>
      <feComposite in="SourceGraphic"/>
    </filter>
  </defs>
  <g id="to" transform="translate(-280.069 -242.569)">
    <g transform="matrix(1, 0, 0, 1, 280.07, 242.57)" filter="url(#Ellipse_47)">
      <g id="Ellipse_47-2" data-name="Ellipse 47" transform="translate(2.5 1)" fill="#fff" stroke="#e1e9ef" stroke-width="1">
        <circle cx="10" cy="10" r="10" stroke="none"/>
        <circle cx="10" cy="10" r="10.5" fill="none"/>
      </g>
    </g>
    <path id="Path_159" data-name="Path 159" d="M2.922,0H1.711V-4.7H.16V-5.711H4.473V-4.7H2.922Zm7.453-2.863a3.1,3.1,0,0,1-.7,2.18A2.607,2.607,0,0,1,7.656.078,2.607,2.607,0,0,1,5.641-.684a3.111,3.111,0,0,1-.7-2.187,3.069,3.069,0,0,1,.705-2.178A2.637,2.637,0,0,1,7.664-5.8a2.6,2.6,0,0,1,2.014.758A3.107,3.107,0,0,1,10.375-2.863Zm-4.168,0A2.386,2.386,0,0,0,6.57-1.422a1.271,1.271,0,0,0,1.086.484q1.449,0,1.449-1.926T7.664-4.793a1.28,1.28,0,0,0-1.09.486A2.376,2.376,0,0,0,6.207-2.863Z" transform="translate(287.409 256.37)" fill="#19c0a2"/>
  </g>
</svg>
