<svg xmlns="http://www.w3.org/2000/svg" xmlns:xlink="http://www.w3.org/1999/xlink" width="142.7" height="32" viewBox="0 0 142.7 32">
  <defs>
    <linearGradient id="linear-gradient" y1="0.5" x2="1" y2="0.5" gradientUnits="objectBoundingBox">
      <stop offset="0" stop-color="#0db"/>
      <stop offset="1" stop-color="#1795e2"/>
    </linearGradient>
  </defs>
  <g id="voomsgo-logo" transform="translate(-253 -139)">
    <g id="typeface" transform="translate(4 -2.048)">
      <path id="Path_46" data-name="Path 46" d="M98.984,27.652a5.915,5.915,0,0,1-1.407,4.222,4.918,4.918,0,0,1-3.838,1.535,5.67,5.67,0,0,1-2.751-.7,5.049,5.049,0,0,1-1.855-1.983,6.589,6.589,0,0,1-.64-3.071A5.915,5.915,0,0,1,89.9,23.43a4.967,4.967,0,0,1,3.9-1.535,4.779,4.779,0,0,1,3.774,1.535,6.128,6.128,0,0,1,1.407,4.222Zm-8.06,0c0,2.559.96,3.838,2.815,3.838s2.815-1.279,2.815-3.838c0-2.495-.96-3.774-2.815-3.774a2.519,2.519,0,0,0-2.175.96,5.546,5.546,0,0,0-.64,2.815Z" transform="translate(217.986 131.126)" fill="#03111a"/>
      <path id="Path_47" data-name="Path 47" d="M119.05,26.469a6.461,6.461,0,0,1-1.535,4.606,5.537,5.537,0,0,1-4.222,1.663,5.841,5.841,0,0,1-3.007-.768A4.683,4.683,0,0,1,108.3,29.8a7.719,7.719,0,0,1-.7-3.326,6.461,6.461,0,0,1,1.535-4.606,6.109,6.109,0,0,1,8.38,0A6.9,6.9,0,0,1,119.05,26.469Zm-8.828,0c0,2.815,1.024,4.158,3.071,4.158s3.071-1.407,3.071-4.158-1.024-4.158-3.071-4.158a2.726,2.726,0,0,0-2.367,1.088,6.057,6.057,0,0,0-.7,3.071Z" transform="translate(211.098 131.733)" fill="#03111a"/>
      <path id="Path_48" data-name="Path 48" d="M138.44,33.557h-2.367V26.712a3.262,3.262,0,0,0-.512-1.919,1.691,1.691,0,0,0-1.471-.64,2.272,2.272,0,0,0-1.983.9,5.017,5.017,0,0,0-.64,2.943v5.5H129.1v-11h2.175v1.471h.128a3.094,3.094,0,0,1,1.343-1.215,4.7,4.7,0,0,1,1.919-.448c1.727,0,2.815.576,3.39,1.727h.192a3.055,3.055,0,0,1,1.407-1.279A4.2,4.2,0,0,1,141.7,22.3a3.51,3.51,0,0,1,2.879,1.024,4.511,4.511,0,0,1,.9,3.071v7.229H143.11V26.712a3.263,3.263,0,0,0-.512-1.919,1.739,1.739,0,0,0-1.535-.64,2.239,2.239,0,0,0-1.983.832,4.294,4.294,0,0,0-.64,2.623Z" transform="translate(203.352 130.978)" fill="#03111a"/>
      <path id="Path_49" data-name="Path 49" d="M166.159,30.092a2.929,2.929,0,0,1-1.151,2.495,5.636,5.636,0,0,1-3.39.9,7.685,7.685,0,0,1-3.518-.64V30.8a8.966,8.966,0,0,0,3.646.9c1.471,0,2.175-.448,2.175-1.279a.96.96,0,0,0-.256-.7,3.987,3.987,0,0,0-.768-.576c-.384-.192-.9-.448-1.535-.7a6.854,6.854,0,0,1-2.559-1.471,2.831,2.831,0,0,1-.7-1.919,2.44,2.44,0,0,1,1.151-2.175,5.54,5.54,0,0,1,3.135-.768h3.39l-.64,1.919c-.64,0-1.983-.128-2.815-.128-1.215,0-1.855.384-1.855,1.088a1.2,1.2,0,0,0,.512.9,8.425,8.425,0,0,0,2.111.96,14.573,14.573,0,0,1,1.983.96,3.334,3.334,0,0,1,.9,1.024,3.594,3.594,0,0,1,.192,1.279Z" transform="translate(192.904 131.053)" fill="#03111a"/>
      <path id="Path_54" data-name="Path 54" d="M74.973,26.444c-.128.32-.256.832-.448,1.471a11.354,11.354,0,0,0-.384,1.791c-.064-.32-.192-.832-.32-1.535a13.279,13.279,0,0,0-.512-1.663L70.431,18H68l4.862,14.01h2.495L80.282,18H77.788Z" transform="translate(225.366 132.526)" fill="#03111a"/>
      <path id="Path_137" data-name="Path 137" d="M-23.275-8.519H-17.5V-.634a16.725,16.725,0,0,1-2.723.655,19.277,19.277,0,0,1-2.82.193,7.083,7.083,0,0,1-5.5-2.111,8.5,8.5,0,0,1-1.934-5.957,7.942,7.942,0,0,1,2.181-5.935,8.2,8.2,0,0,1,6-2.143,11.694,11.694,0,0,1,4.662.945l-.9,2.138a9.072,9.072,0,0,0-3.824-.881,5.149,5.149,0,0,0-3.975,1.579,6.112,6.112,0,0,0-1.461,4.318,6.447,6.447,0,0,0,1.316,4.377,4.771,4.771,0,0,0,3.787,1.5,12.445,12.445,0,0,0,2.664-.312v-4.05h-3.255ZM-1.3-7.874A8.591,8.591,0,0,1-3.217-1.912,6.935,6.935,0,0,1-8.647.215,6.983,6.983,0,0,1-14.11-1.9a8.644,8.644,0,0,1-1.907-6A8.51,8.51,0,0,1-14.1-13.868a7.065,7.065,0,0,1,5.473-2.084,6.922,6.922,0,0,1,5.414,2.116A8.582,8.582,0,0,1-1.3-7.874Zm-11.988,0a7.042,7.042,0,0,0,1.171,4.4,4.134,4.134,0,0,0,3.47,1.5A4.126,4.126,0,0,0-5.194-3.459,7.055,7.055,0,0,0-4.028-7.874a7.07,7.07,0,0,0-1.155-4.383A4.083,4.083,0,0,0-8.626-13.75a4.168,4.168,0,0,0-3.486,1.493A6.974,6.974,0,0,0-13.288-7.874Z" transform="translate(393 165)" fill="#03111a"/>
    </g>
    <g id="icon" transform="translate(253 139)">
      <path id="XMLID_27_" d="M63.125,223.087a13.472,13.472,0,0,1-26.944,0c0-.214.005-.427.015-.634H33.674c-.008.207-.013.42-.013.633a15.993,15.993,0,1,0,31.985,0c0-.212,0-.425-.013-.633H63.113C63.12,222.662,63.125,222.873,63.125,223.087Z" transform="translate(-31.336 -207.078)" fill="url(#linear-gradient)"/>
      <path id="XMLID_26_" d="M50.918,2.517A13.466,13.466,0,0,1,64.279,14.253h2.538c-.054-.484-.128-1-.231-1.486a15.993,15.993,0,0,0-31.335,0c-.1.489-.177,1-.231,1.486h2.538A13.466,13.466,0,0,1,50.918,2.517Z" transform="translate(-32.6 0.018)" fill="url(#linear-gradient)"/>
      <path id="XMLID_25_" d="M27.065,167.726c-5.478.144-6.816,3.715-6.816,3.715l-1.9,3.754-1.931-3.754s-1.352-3.571-6.831-3.715L0,167.709l2.815,2.676h6.6a5.452,5.452,0,0,1,4.516,3.286l4.393,8.213v.042l4.383-8.252a5.439,5.439,0,0,1,4.507-3.286h6.6l2.815-2.676Z" transform="translate(0 -156.114)" fill="url(#linear-gradient)"/>
    </g>
  </g>
</svg>
